MoBL_ARMS_module2_4_allmuscles_shoulder_states	
version=1	
nRows=504	
nColumns=2	
inDegrees=yes	
	
# SIMM Motion File Header:	
name MoBL_ARMS_module2_4_allmuscles_shoulder_states	
datacolumns 2	
datarows 504	
otherdata 1	
range 4.882075841 5.987647567	
endheader	
time	shoulder_elv
4.882075841	11.50114018
4.884057912	11.4772648
4.886039983	11.45359621
4.888022055	11.43013346
4.890004126	11.40687591
4.891986197	11.38382267
4.893968268	11.3609731
4.89595034	11.33832635
4.897932411	11.31588181
4.899914482	11.29363864
4.901896554	11.27159626
4.903878625	11.24975382
4.905860696	11.22811075
4.907842767	11.20666624
4.909824839	11.18541975
4.91180691	11.16437052
4.913788981	11.14351809
4.915771053	11.12286177
4.917753124	11.10240111
4.919735195	11.08213544
4.921717266	11.06206431
4.923699338	11.04218704
4.925681409	11.02250321
4.92766348	11.00301219
4.929645552	10.9837136
4.931627623	10.96460686
4.933609694	10.94569159
4.935591765	10.92696719
4.937573837	10.90843326
4.939555908	10.8900892
4.941537979	10.8719346
4.943520051	10.85396887
4.945502122	10.83619158
4.947484193	10.81860206
4.949466264	10.8011998
4.951448336	10.78398405
4.953430407	10.76695423
4.955412478	10.75010956
4.95739455	10.73344942
4.959376621	10.71697298
4.961358692	10.70067954
4.963340763	10.6845681
4.965322835	10.66863775
4.967304906	10.65288726
4.969286977	10.63731555
4.971269049	10.62192131
4.97325112	10.60670338
4.975233191	10.59166048
4.977215262	10.57679146
4.979197334	10.56209504
4.981179405	10.54757004
4.983161476	10.53321511
4.985143548	10.51902895
4.987125619	10.50501004
4.98910769	10.49115698
4.991089761	10.47746819
4.993071833	10.46394225
4.995053904	10.4505776
4.997035975	10.43737283
4.999018047	10.4243264
5.001000118	10.41143683
5.002982189	10.39870243
5.00496426	10.3861215
5.006946332	10.37369215
5.008928403	10.36141252
5.010910474	10.3492806
5.012892546	10.33729449
5.014874617	10.32545218
5.016856688	10.31375173
5.018838759	10.30219108
5.020820831	10.29076818
5.022802902	10.27948086
5.024784973	10.26832697
5.026767045	10.25730426
5.028749116	10.24641058
5.030731187	10.23564369
5.032713258	10.22500144
5.03469533	10.21448156
5.036677401	10.20408184
5.038659472	10.19379998
5.040641544	10.18363383
5.042623615	10.17358114
5.044605686	10.16363983
5.046587757	10.1538077
5.048569829	10.1440827
5.0505519	10.13446261
5.052533971	10.12494537
5.054516042	10.11552882
5.056498114	10.10621093
5.058480185	10.09698958
5.060462256	10.08786273
5.062444328	10.07882821
5.064426399	10.06988392
5.06640847	10.06102765
5.068390541	10.05225731
5.070372613	10.04357077
5.072354684	10.03496601
5.074336755	10.02644094
5.076318827	10.01799361
5.078300898	10.00962196
5.080282969	10.00132406
5.08226504	9.993097926
5.084247112	9.984941691
5.086229183	9.976853478
5.088211254	9.968831545
5.090193326	9.96087413
5.092175397	9.952979601
5.094157468	9.945146308
5.096139539	9.937372734
5.098121611	9.92965734
5.100103682	9.92199872
5.102085753	9.914395453
5.104067825	9.906846252
5.106049896	9.899349815
5.108031967	9.891904954
5.110014038	9.884510463
5.11199611	9.877165236
5.113978181	9.869868128
5.115960252	9.862618081
5.117942324	9.85541401
5.119924395	9.848254928
5.121906466	9.841139811
5.123888537	9.834067707
5.125870609	9.827037591
5.12785268	9.820048446
5.129834751	9.813099124
5.131816823	9.806188482
5.133798894	9.799315299
5.135780965	9.7924784
5.137763036	9.785676556
5.139745108	9.778908588
5.141727179	9.772173207
5.14370925	9.76546907
5.145691322	9.758794657
5.147673393	9.752148388
5.149655464	9.745528547
5.151637535	9.738933426
5.153619607	9.732361261
5.155601678	9.725810354
5.157583749	9.71927898
5.159565821	9.712765478
5.161547892	9.706268139
5.163529963	9.699785275
5.165512034	9.693315126
5.167494106	9.686855952
5.169476177	9.680405946
5.171458248	9.673963343
5.17344032	9.667526356
5.175422391	9.661093272
5.177404462	9.654662383
5.179386533	9.64823207
5.181368605	9.641800725
5.183350676	9.635366819
5.185733765	9.627625625
5.188116854	9.61987595
5.190499943	9.612115242
5.192883032	9.604341068
5.194626154	9.598644705
5.196814267	9.591480742
5.198717093	9.585237442
5.20061992	9.578980525
5.202522746	9.572708943
5.204924417	9.564770664
5.207057787	9.557696651
5.209191157	9.55060004
5.211324527	9.543479598
5.213943361	9.534704472
5.216073742	9.527536662
5.218204124	9.520341223
5.220334505	9.513116917
5.222464886	9.505862499
5.224895202	9.497548282
5.226970856	9.490413522
5.22904651	9.483246248
5.231122164	9.476045241
5.234108271	9.46562395
5.235638794	9.460253234
5.23771352	9.452939765
5.239807845	9.445516871
5.241902169	9.438051242
5.243996494	9.430540324
5.246396466	9.42187392
5.248549901	9.414040368
5.250703336	9.406149094
5.252856772	9.398196555
5.254973144	9.390317361
5.257089516	9.38237087
5.259205888	9.37435217
5.26132226	9.36625587
5.263438633	9.358076389
5.265555005	9.34980807
5.267671377	9.341445235
5.269787749	9.332982157
5.271904121	9.324412905
5.274020494	9.315731142
5.276136866	9.306930242
5.281458862	9.284227201
5.282786543	9.278426786
5.284114223	9.272568532
5.286379223	9.262436383
5.289046556	9.250271869
5.291151639	9.240485928
5.293256722	9.230529429
5.295361805	9.220396226
5.297466888	9.210080324
5.299566077	9.199605602
5.301665266	9.188937862
5.303764455	9.178071673
5.306240284	9.164993658
5.308716113	9.151624
5.310909245	9.139530984
5.313102378	9.127197641
5.315597158	9.112869349
5.317781752	9.100056163
5.319966346	9.086989451
5.32215094	9.073664805
5.32408095	9.061675002
5.326010959	9.049477805
5.327940969	9.037070468
5.330835827	9.018060711
5.333266837	9.001720759
5.335264233	8.988034697
5.33726163	8.97411074
5.341108239	8.946616704
5.343055841	8.932350809
5.34566213	8.912892485
5.348268418	8.893009002
5.349916502	8.880214243
5.352133641	8.862728795
5.354051477	8.847349532
5.355969313	8.831732843
5.35788715	8.815877267
5.360745836	8.791796958
5.363604522	8.767178506
5.365699288	8.748794782
5.367794054	8.730118322
5.370917844	8.70172054
5.372659387	8.685602863
5.374869839	8.664849714
5.377080291	8.643764446
5.379290743	8.622345965
5.381501196	8.600593169
5.383480306	8.58083258
5.385459416	8.560802707
5.387438526	8.540503007
5.391268746	8.500448649
5.393560926	8.475993226
5.395723579	8.452586291
5.397886232	8.428855618
5.400227864	8.402795677
5.402569497	8.376356306
5.404686866	8.352122189
5.406804235	8.327578171
5.409225775	8.299128465
5.411647315	8.270274572
5.413769084	8.244660477
5.415890852	8.218737025
5.419047319	8.17960044
5.421020565	8.15478906
5.422993811	8.129711881
5.42556687	8.096614735
5.428139928	8.063069377
5.430712987	8.029078448
5.433702646	7.989026514
5.435673586	7.962295897
5.437644526	7.935307666
5.439615466	7.908062679
5.442095818	7.873413266
5.444576169	7.83836167
5.44705652	7.802911194
5.449176997	7.772289439
5.451297473	7.741379547
5.454102405	7.700053169
5.456056496	7.670968894
5.458010588	7.641645421
5.460491483	7.604074212
5.462972378	7.566123467
5.465453274	7.527795996
5.467934169	7.489096139
5.470415065	7.450026792
5.472571461	7.415771153
5.474727856	7.381241861
5.476884252	7.34644188
5.478768484	7.315814326
5.480652716	7.284983993
5.482536947	7.253952503
5.485065147	7.212003021
5.487593347	7.169699412
5.489308098	7.140808064
5.491513504	7.103415922
5.49371891	7.065763734
5.495924316	7.027854783
5.498129722	6.989692496
5.500335127	6.951279934
5.502540533	6.912621156
5.504745939	6.873718912
5.50739711	6.826637507
5.51004828	6.77921589
5.512391459	6.737025326
5.514734639	6.694579158
5.517060822	6.652191748
5.519387005	6.609560984
5.521557555	6.569566885
5.523728104	6.529368748
5.526270151	6.482035759
5.528812199	6.434434699
5.530851204	6.396062996
5.53289021	6.357525459
5.535585583	6.306334022
5.537633298	6.26725804
5.539681013	6.228026356
5.542873099	6.166566394
5.544469845	6.135689731
5.546516128	6.095990729
5.548562411	6.056150438
5.550608694	6.016173264
5.552654977	5.976062371
5.555225877	5.925484473
5.55730763	5.884384231
5.559389382	5.843158337
5.563194017	5.767499333
5.565081266	5.729833653
5.566968515	5.692074656
5.569827687	5.634699175
5.572686859	5.577128052
5.575010726	5.530200274
5.577200026	5.485885098
5.579389325	5.441472959
5.581940847	5.389596959
5.584492368	5.337603797
5.586529197	5.296019454
5.588566025	5.254369106
5.591385943	5.196603996
5.593425653	5.154753616
5.595465362	5.112850254
5.598415389	5.05216152
5.6005718	5.007741778
5.602728211	4.96327925
5.604884622	4.918778924
5.606841592	4.878365328
5.608798561	4.83792846
5.610755531	4.797471489
5.613425301	4.742253748
5.616095071	4.687014749
5.61876484	4.631766087
5.62143461	4.576514148
5.623123058	4.541575303
5.625264381	4.49727283
5.627405704	4.452983892
5.629547027	4.408714231
5.631688349	4.364467927
5.633619182	4.324595688
5.635550014	4.284750396
5.637480847	4.244935816
5.640221124	4.18849005
5.642961401	4.132125232
5.645701678	4.075850733
5.648441955	4.019677088
5.650211594	3.98345899
5.651981232	3.947290087
5.654210478	3.901802074
5.656439723	3.856402755
5.658668968	3.811097832
5.660898214	3.76589249
5.663127459	3.720793662
5.665356705	3.675805793
5.66758595	3.630935125
5.669815195	3.586187476
5.672044441	3.541568611
5.674273686	3.497084091
5.676502932	3.452739863
5.678465618	3.413818358
5.680428304	3.375014264
5.68239099	3.336330847
5.685283983	3.279541397
5.687620778	3.233876412
5.689957573	3.188402942
5.69183413	3.15202919
5.693710687	3.115786627
5.695979135	3.072155558
5.698247583	3.02872735
5.70051603	2.985508501
5.702784478	2.94250394
5.705052926	2.899720353
5.707321374	2.857163552
5.709589821	2.814838968
5.711858269	2.772753846
5.714126717	2.730912633
5.716395165	2.689321513
5.718663613	2.647987009
5.72093206	2.606913927
5.722946199	2.570670158
5.724960338	2.534641269
5.726974477	2.498831615
5.729969389	2.445998066
5.732563556	2.40064514
5.735157723	2.355680187
5.737418698	2.316813537
5.739679674	2.278253514
5.74194065	2.240006334
5.744201625	2.202077107
5.746462601	2.164471551
5.748902331	2.12426181
5.75134206	2.0844423
5.75378179	2.045018714
5.756221519	2.005998124
5.758186517	1.974868255
5.760151515	1.944007105
5.762116513	1.913418507
5.765087497	1.867694775
5.767457715	1.831678679
5.769827932	1.796076031
5.772198149	1.760893071
5.774568366	1.726137133
5.776938583	1.691811967
5.779308801	1.657923752
5.781679018	1.624478706
5.784049235	1.591481259
5.785967202	1.565111269
5.787885169	1.539041011
5.790240032	1.507446103
5.792594895	1.476312131
5.794949759	1.445645091
5.797304622	1.415448215
5.799892736	1.38280951
5.802132366	1.355034215
5.804371995	1.327698902
5.806581339	1.301166852
5.808790682	1.275070265
5.811000025	1.249412146
5.813128038	1.225117239
5.815256052	1.201235885
5.817384065	1.177771496
5.820210335	1.147256841
5.822513373	1.122946788
5.824816412	1.099135646
5.82711945	1.07582806
5.829422488	1.053028231
5.831725526	1.030740087
5.833855513	1.010584265
5.835985499	0.990871377
5.838115486	0.971604182
5.841111976	0.945256945
5.843379402	0.925916901
5.845646829	0.907089436
5.847756043	0.89003953
5.849865258	0.87343958
5.851974473	0.857291687
5.854981396	0.835055754
5.856841236	0.821770376
5.858701076	0.808839539
5.861090173	0.792752991
5.863479271	0.777259489
5.865868368	0.762362488
5.868257465	0.748062609
5.871097427	0.731845359
5.87393739	0.716480914
5.876777353	0.701972012
5.879073954	0.690866685
5.881370556	0.680323676
5.883600556	0.670626241
5.885830555	0.661463114
5.888060555	0.652834096
5.890446672	0.644194471
5.892832789	0.636169614
5.895218906	0.628761574
5.897605024	0.621969893
5.899707706	0.616496701
5.901810388	0.611504698
5.90391307	0.606993015
5.907463523	0.600469735
5.910189363	0.5963935
5.912538791	0.593530209
5.914888219	0.591268374
5.917237647	0.589608176
5.919587074	0.588551286
5.921936502	0.588095625
5.92428593	0.58824154
5.926692812	0.589014556
5.929099694	0.590418952
5.931194663	0.592153492
5.933289632	0.594365126
5.935384601	0.597052561
5.93890729	0.602647527
5.94173425	0.608108046
5.94456121	0.614426549
5.946921118	0.620365204
5.949281027	0.626896256
5.951640936	0.634024586
5.954000845	0.641746937
5.956360754	0.650062684
5.958720663	0.658968126
5.961080572	0.66846412
5.963162082	0.677325507
5.965243593	0.686643488
5.967325104	0.696414179
5.970723123	0.713339425
5.973075189	0.725754764
5.975427255	0.738741947
5.977517376	0.75075873
5.979607496	0.763223325
5.981697616	0.776132693
5.984672591	0.795270663
5.987647567	0.815302116
